<svg xmlns="http://www.w3.org/2000/svg" width="20" height="20" viewBox="0 0 20 20" fill="none"> <path fill-rule="evenodd" clip-rule="evenodd" d="M13.0109 11.5379C13.7384 10.5162 14.1663 9.2664 14.1663 7.91666C14.1663 4.46488 11.368 1.66666 7.91626 1.66666C4.46448 1.66666 1.66626 4.46488 1.66626 7.91666C1.66626 11.3684 4.46448 14.1667 7.91626 14.1667C9.26638 14.1667 10.5165 13.7386 11.5383 13.0107C11.5439 13.0166 11.5496 13.0224 11.5554 13.0282L15.6102 17.0833C16.017 17.4901 16.6765 17.4901 17.0833 17.0833C17.4901 16.6765 17.4901 16.017 17.0833 15.6102L13.0286 11.5551C13.0227 11.5493 13.0169 11.5435 13.0109 11.5379ZM7.9165 12.2135C10.2896 12.2135 12.2134 10.2897 12.2134 7.91665C12.2134 5.54355 10.2896 3.61977 7.9165 3.61977C5.54341 3.61977 3.61963 5.54355 3.61963 7.91665C3.61963 10.2897 5.54341 12.2135 7.9165 12.2135Z" fill="#a5acbd"/> </svg>