 <svg xmlns="http://www.w3.org/2000/svg" width="24" height="24" viewBox="0 0 24 24" fill="none"> <g> <path fill-rule="evenodd" clip-rule="evenodd" d="M17.5487 8.0001C16.7829 6.74175 15.1271 4.67011 12.5637 1.75476C12.2645 1.41448 11.7342 1.41518 11.4359 1.75625C8.88065 4.67783 7.22597 6.74805 6.45489 7.99571C3.91532 12.1049 3.72409 15.9389 6.56528 18.751C9.63862 21.793 14.3621 21.792 17.4355 18.7512C20.2743 15.9425 20.0858 12.169 17.5487 8.0001ZM7.73087 8.78429C8.39019 7.71747 9.8183 5.91206 12.0019 3.39071C14.1889 5.90415 15.6153 7.70851 16.2673 8.77991C18.4829 12.4205 18.6344 15.4548 16.3805 17.6849C13.8915 20.1475 10.1092 20.1483 7.62047 17.685C5.36463 15.4522 5.51867 12.3638 7.73087 8.78429Z" fill="#fff"/> <path d="M12.7366 17.2967C14.3588 16.7579 15.4749 15.2362 15.4749 13.5C15.4749 13.0858 15.1391 12.75 14.7249 12.75C14.3107 12.75 13.9749 13.0858 13.9749 13.5C13.9749 14.5852 13.277 15.5366 12.2638 15.8732C11.8707 16.0038 11.6579 16.4283 11.7884 16.8214C11.919 17.2145 12.3436 17.4273 12.7366 17.2967Z" fill="#fff"/> </g> </svg>